# xmcd
#
# Track frame offsets:
#	182
#	24905
#	42800
#	68355
#	86362
#	109522
#	142565
#	163742
#	181947
#	198790
#	211030
#	228165
#	248010
#	256155
#	273737
#	286530
#	302967
#	331540
#
# Disc length: 4564 seconds
#
# Revision: 0
# Processed by: cddbd v1.4PL0 Copyright (c) Steve Scherf et al.
# Submitted via: EasyCDDAExtractor 5.0.5.1
#
DISCID=d311d212
DTITLE=Jean-Jacques Goldman - Entre Gris Clair Et Gris Foncé
DYEAR=1987
DGENRE=Français
TTITLE0=(Intro) A Quoi Tu Sers?
TTITLE1=Il Changeait La Vie
TTITLE2=Là-bas
TTITLE3=Entre Gris Clair Et Gris Foncé
TTITLE4=C'est Ta Chance
TTITLE5=Puisque Tu Pars
TTITLE6=Des Bouts De Moi
TTITLE7=Fais Des Bébés
TTITLE8=Filles Faciles
TTITLE9=Je Commence Demain
TTITLE10=Elle A Fait Un Bébé Toute Seule
TTITLE11=Quelque Part, Quelqu'un
TTITLE12=Qu'elle Soit Elle
TTITLE13=Doux
TTITLE14=Reprendre C'est Voler
TTITLE15=Il Y A
TTITLE16=Peur De Rien Blues
TTITLE17=Appartenir
EXTD=
EXTT0=
EXTT1=
EXTT2=
EXTT3=
EXTT4=
EXTT5=
EXTT6=
EXTT7=
EXTT8=
EXTT9=
EXTT10=
EXTT11=
EXTT12=
EXTT13=
EXTT14=
EXTT15=
EXTT16=
EXTT17=
PLAYORDER=
